<svg xmlns="http://www.w3.org/2000/svg" viewBox="0 0 245.82 37.31"><defs><style>.cls-1{fill:#231815;}</style></defs><title>kokokara-logo</title><g id="レイヤー_2" data-name="レイヤー 2"><g id="レイヤー_1-2" data-name="レイヤー 1"><path class="cls-1" d="M7.5,20.92,5.14,24.46V36.64H0V.67H5.14V16.29L7.5,12.08,14.7.67h6.06L10.48,16.34l11.77,20.3h-6Z"/><path class="cls-1" d="M31,25.23V12.08C31,4.57,35.1,0,42,0S53,4.57,53,12.08V25.23c0,7.51-4.11,12.08-11,12.08S31,32.74,31,25.23Zm16.65,0V12.08c0-4.53-2-7-5.65-7s-5.65,2.46-5.65,7V25.23c0,4.52,1.9,7,5.65,7S47.64,29.75,47.64,25.23Z"/><path class="cls-1" d="M72.83,20.92l-2.37,3.54V36.64H65.32V.67h5.14V16.29l2.37-4.21L80,.67h6.07L75.81,16.34l11.77,20.3h-6Z"/><path class="cls-1" d="M96.31,25.23V12.08c0-7.51,4.12-12.08,11-12.08s11,4.57,11,12.08V25.23c0,7.51-4.11,12.08-11,12.08S96.31,32.74,96.31,25.23Zm16.66,0V12.08c0-4.53-2-7-5.66-7s-5.65,2.46-5.65,7V25.23c0,4.52,1.9,7,5.65,7S113,29.75,113,25.23Z"/><path class="cls-1" d="M138.15,20.92l-2.36,3.54V36.64h-5.14V.67h5.14V16.29l2.36-4.21L145.35.67h6.06L141.13,16.34l11.77,20.3h-6Z"/><path class="cls-1" d="M176,29.4h-9.51l-1.64,7.24h-5.45l9-36h5.61l9,36h-5.4ZM175,24.56l-2.26-9.66c-.52-2.36-1.08-5.8-1.34-7.71h-.15c-.26,1.91-.77,5.35-1.34,7.71l-2.21,9.66Z"/><path class="cls-1" d="M201.73,23.59h-3.24V36.64H193.3V.67h9.3c6.89,0,10.79,4.11,10.79,11.25,0,5.6-2.36,9.46-6.47,11l7.81,13.77H209Zm-3.24-4.94h4c3.65,0,5.55-2.36,5.55-6.62s-1.9-6.43-5.5-6.43h-4.06Z"/><path class="cls-1" d="M238.73,29.4h-9.51l-1.64,7.24h-5.45l9.05-36h5.6l9,36h-5.39Zm-1.08-4.84-2.26-9.66c-.51-2.36-1.08-5.8-1.34-7.71h-.15c-.26,1.91-.77,5.35-1.34,7.71l-2.21,9.66Z"/></g></g></svg>