<?xml version="1.0" encoding="utf-8"?>
<!-- Generator: Adobe Illustrator 21.1.0, SVG Export Plug-In . SVG Version: 6.00 Build 0)  -->
<svg version="1.1" xmlns="http://www.w3.org/2000/svg" xmlns:xlink="http://www.w3.org/1999/xlink" x="0px" y="0px" viewBox="0 0 607.1 79.5" style="enable-background:new 0 0 607.1 79.5;" xml:space="preserve">
<g>
	<g>
		<path d="M407.7,40.6c-0.3-1.1-0.8-1.4-1.2-1.4c-0.7,0-0.5-0.2-2.1,0.1c0,0,0-0.8,0-1.3c-0.1-2.4-0.1-2.4-0.2-6.2
			c0-5.7-1.7-8-7.3-6.9c-8.1,1.6-7.2,0.9-21,6.3c-0.5,0.2-1,0.1-1.5-0.4c-0.6-0.5-0.3-1.4,0.6-2.5c4.1-5,6.3-8.9,10.9-12.2
			c1-0.7,8.3-1.4,9.6-1.8c0.9-0.3,2.5-0.5,2.1-2.1c-0.3-1.4-1.6-1.8-2.8-1.8c-0.5,0-1-0.1-1.4,0.1c-6.1,1.6-17.1,3.1-23.1,5.4
			c-3.5,1.3-7.2,2-10.3,4.3c-1.2,0.9-2.1,2.1-0.9,3.6c1.1,1.4,2.3,0.7,3.5-0.1c0.3-0.2,0.5-0.5,0.8-0.7c4.7-3.2,8.6-3.7,14.6-5.2
			c-2.4,2.8-1.3,1.5-3.9,4.8c-2.1,2.8-2.1,2.3-4.1,4.7c-1.6,1.9-3,2.4-2.7,5.4c0.1,1.4,0.1,3.2,0.2,4.6c0.3,5.1,1.3,9.7,1.6,14.8
			c0.1,1.4,0.6,2.5,1.9,3.2c1.5,0.7,2.2-0.3,3-1.3c0.5-0.5,4.6-2,5.3-2.3c4.5-2,2.5-1.1,6.1-2.3c2.1-0.7,6.1-1.9,7.2-2.2
			c5.8-1.7,5.8-1.7,5.8-1.7s2-0.8,4.7-1.5c1.3-0.3,2.7-0.6,3.8-1.1C407.7,42.5,408,41.7,407.7,40.6z M380.9,44.3
			c0,1.4-0.1,1.5-1.2,2.3c-1.4,1-2.3,1-3.1,1.2c-0.9,0.2-2.9,0.9-3-1c0,0-0.2-1.6-0.3-3.4c-0.1-1-0.1-5.2-0.1-6
			c-0.1-2.4,3.9-3,5.9-3.3c1.4-0.2,1.3,1.1,1.5,2.7C380.9,40.9,381,42.1,380.9,44.3z M384.9,35.8c-0.1-0.3-0.4-1.9-0.2-2.3
			c0.8-1.6,5.1-2.1,5.1-2.1c0.8-0.1,1.1,1.1,1,2.2c0,1.2-0.4,0.9-2.4,1.6c-1.1,0.4-1.6,0.8-2.7,1.1C385.5,36.3,385,36.2,384.9,35.8z
			 M391.2,42.2c-1.3,0.5-2.8,0.8-4.2,1.3c-1.6,0.6-1.3-0.1-1.6-1.1c-0.3-0.9,0-1.5,1-1.7c1.7-0.4,4-1.9,5.5-1.4
			c0.2,0.1,0.7,1.8,0.7,2.1C392.6,42,391.6,42.1,391.2,42.2z M399.3,39.7c-0.1,1.3,0,0.9-3,1.5c-0.2,0-0.3,0.1-0.6,0.1
			c-0.2,0-0.4-0.2-0.4-0.5c-0.1-1.8-0.5-3.2-0.7-4.2c-0.2-1.6-0.2-1.6-0.4-3.8c-0.1-1.3-0.3-2.5,0.4-2.7c1.5-0.5,2-0.5,3.4-0.9
			c0.8-0.2,0.7,1.3,0.8,2.2C399.2,35.2,399.5,36,399.3,39.7z"/>
		<path d="M446.5,24.2c-0.3-4-2.5-5.2-6.3-4.1c-3.3,1-6.2,2.6-9.1,4.2c-2,1.1-2.7,0.3-3.1-1.6c-0.3-1.5,1-2.1,2.2-3.1
			c2.8-2.5,3.1-3.4,9-6.6c1.1-0.6,1.5-0.3,1.7-1.5c0.2-0.9-0.2-1.7-1-2.1c-1.1-0.7-2.1-0.5-3.1,0.3c-4,2.9-8,5.8-12.1,8.7
			c-1.1,0.8-1.8,1.8-1.4,3.1c1.6,4.8,1,9.8,1.4,14.4c0,2.9-0.1,5.4,0,7.9c0.1,2.6,1.5,3.5,4,2.6c1.7-0.6,4.7-1.1,6.5-1.6
			c2.1-0.6,5.7-0.9,8.4-1.5c2.7-0.6,4.4,0.4,4.7-1C449.7,36.9,447,32,446.5,24.2z M429.8,29.3c2.8-2.3,6-3.1,9.6-4.1
			c1.9-0.5,2.9,0.2,2.8,2c-0.1,1.9,0.8,2.8-2.5,3.3c-2.9,0.4-5.9,1.3-8.8,1.7c-0.8,0.1-0.8,0.3-1.2-0.5
			C429.5,31.3,429.4,29.6,429.8,29.3z M440.1,39.8c-2.5,0.4-5.1,0.8-8.1,1.8c-3,1-2.2-1.3-2.4-2.8c-0.3-1.9,0.2-1.9,2.4-2.4
			c3-0.7,3.7-1.3,5.6-1.7c3.1-0.7,5.7-1.2,5.9,0.2C443.8,37.9,444.6,39.1,440.1,39.8z"/>
	</g>
	<path d="M578.3,25.6c-0.6,0-0.9-0.1-1.8-0.1c-2.5,0.2-2.3,0.4-2.1-1.8c0.3-4.3-2.9-6.8-6.8-6.5c-1.9,0.2-1.7-1.2-1.1-2.1
		c1.5-2.1,2.4-4.2,3.1-6.5c1.1-3.2-0.4-5.1-4.3-5.1c-2.1,0.2-4.2,0.8-6.8,1.9c-1.9,0.8-3.5,1.6-4.8,3.1c-1,1.2-0.8,2.6,0.2,3.6
		c1.1,1,2,0,2.8-0.8c1.6-1.5,3-2.3,4.8-3c1.7-0.7,2.5-1.2,3.4-0.3c1,1.1-0.2,2.3-0.9,3.3c-2.9,4.4-5.7,7.9-9,11.5
		c-1.2,1.4-2.5,2.9-1,4.5c1.6,1.7,3.2,0.3,4.4-1c1.8-2,4-3.5,6.5-4.4c2.3-0.8,4.3-0.3,5,2c0.5,1.6-0.7,3-2.4,3.8
		c-4.7,2.1-7.6,5.7-9,10.5c-0.5,1.6-1.1,3.6,0.7,4.7c1.6,1.1,3.1,0,4.3-1.2c2.2-2.3,4.6-4.7,6.5-7.2c1.5-1.9,2.6-4.8,8.2-4.7
		c1.3,0,3.2-0.3,3.1-2.2C581.3,26,579.7,25.7,578.3,25.6z M565.7,35.2c-1.3,1.5-2.8,2.5-3.3,2.1c-0.5-0.3,0.1-1.8,1.4-3.3
		s2.8-2.5,3.3-2.1C567.6,32.3,567,33.7,565.7,35.2z"/>
	<path d="M55.4,63.9c-6.5-1.3-11-4-13.8-5.7c-4.5-2.6-7.9-6.8-11.3-10.6c-4.4-4.9-3.5-7.9-2.3-14.1c0.8-4.1,2.1-5.8,3.2-9.2
		c1.7-2.6-0.2-3.3-2.9-4c-2-0.4-2.6,1.1-3,2.7c-0.3,1.3-0.5,2.6-0.8,3.9c-0.4,2.3-1.3,4.5-2.1,6.7c-4.6,12.8-9.4,21.1-18.1,32.6
		c-0.6,0.8-5,6.1-4.4,6.9c0.7,1,4,0.7,5.1,0.4c1.2-0.4,2-1.6,2.7-2.5c6.4-7.7,10-13.7,14.3-21c1.4-2.4,2.2-2.2,3.3-0.6
		c2.2,3,2.6,3.3,3.8,4.6c5.4,6.2,17.1,14.5,25.2,15.2c0.5,0,2.9,0,3.4-0.1c1.3-0.3,1-2.3-0.1-4C56.8,63.9,56.5,64.1,55.4,63.9z"/>
	<path d="M297.5,24.1c-0.8,0-1.7,0-2.6,0c-2,0-4.2,0.3-2.5-3c0.7-1.3-0.1-2.5-1.4-3.2c-1.5-0.8-2.4,0.1-3.2,1.2
		c-0.7,1.1-1.3,2.2-1.8,3.4c-1.1,2.5-2.6,4.2-5.5,4.7c-2.6,0.5-5,1.9-7.2,3.3c-1.4,0.9-1.8,2.2-0.9,3.5c0.9,1.3,2.2,1.1,3.4,0.5
		c0.8-0.4,1.5-1.1,2.3-1.6c0.6-0.4,2.2-1.7,2.9-1.2c0.8,0.6-0.8,2.1-1.1,2.8c-1.5,3.3-3,6.6-4.6,9.8c-0.7,1.4-1.1,2.8-0.3,4.2
		c0.3,0.6,0.9,0.9,1.6,0.8c1.7-0.4,2.2-1.9,2.7-3.3c0.1-0.4,0.1-0.8,0.3-1.2c1.4-4,3.5-7.6,6.1-11.7c0.8,3.3,1.3,6,2.4,8.5
		c0.7,1.6,1.5,2.9,3.4,2.9c1.8,0,2.9-1,3.6-2.6c2.1-4.4,3.7-9,5.2-13.7C301.4,25.4,300.4,24.2,297.5,24.1z M294.9,31.1
		c-0.4,2.4-1.5,4.6-2.6,6.8c-0.8,1.6-1.6,0.7-1.9-0.4c-0.8-2.5-0.6-5.1-0.2-7.5c0.3-1.6,1.7-1.7,3-1.4
		C294.7,28.8,295.2,29.7,294.9,31.1z"/>
	<path d="M338.3,21.1c-0.2-0.9-1.6-1.2-2.8-1.3c-1.4-0.2-5.4,1-7,1.3c-5.7,1.2-10.9,3.5-14.8,8.1c-1,1.1-0.9,2.4,0.4,3.3
		c1.1,0.8,2.3,0.7,3.1-0.5c2.9-4.1,7.3-5.3,11.7-6.6c2.7-0.8,3.6,0.1,3,2.9c-1,4.3-2.9,8.2-4.7,12.2c-5.8,12.5-14,23.6-20.7,35.6
		c-0.5,0.9-2.1,1.9-0.5,2.9c1.2,0.8,2.4-0.1,3.3-1.2c0.6-0.8,1.2-1.7,1.8-2.6c1.8-2.9,3.5-5.8,5.4-8.7c8.6-12.7,16.2-26,21.2-40.7
		C338.1,24.6,338.8,23.7,338.3,21.1z"/>
	<path d="M258.8,40.9c0,0-0.8-2.2-0.8-4.4c-0.1-2-0.3-3-0.4-6.6c-0.2-4.7-2-6.7-6.6-5.1c-4.1,1.5-8.2,3-12.2,4.7
		c-2.2,0.9-4.5,2-6.4,3.6c-0.9,0.7-1.4,1.7-0.7,2.8c0.6,1.1,1.6,1.4,2.8,1c0.8-0.3,1.5-0.8,2.2-1.2c5.4-3.3,8-4.3,12.3-5.8
		c2.9-1,3.6,0,3.7,3c0,1.7,0.3,3.2,0.4,4.8c0.2,4,1.5,3.7-6,6.4c-2.8,1-5.4,2.5-8,3.8c-1.1,0.6-2.2,1.6-1.6,3.1
		c0.7,1.8,1.9,1.3,3.2,1.1c1.5-0.2,1.7-0.6,3.4-1.2c2.4-0.9,3.7-1,5.6-2c2.7-1.4,2.6-1.5,4.1-2.4c3.4-2,4.1-1.9,5.8-3.4
		C259.4,43.1,259.2,41.7,258.8,40.9z"/>
	<path d="M217.4,44c0,0-0.8-2.2-0.8-4.4c-0.1-2-0.3-3-0.4-6.6c-0.2-4.7-2-6.7-6.6-5.1c-4.1,1.5-8.2,3-12.2,4.7
		c-2.2,0.9-4.5,2-6.4,3.6c-0.9,0.7-1.4,1.7-0.7,2.8c0.6,1.1,1.6,1.4,2.8,1c0.8-0.3,1.5-0.8,2.2-1.2c5.4-3.3,8-4.3,12.3-5.8
		c2.9-1,3.6,0,3.7,3c0,1.7,0.3,3.2,0.4,4.8c0.2,4,1.5,3.7-6,6.4c-2.8,1-5.4,2.5-8,3.8c-1.1,0.6-2.2,1.6-1.6,3.1
		c0.7,1.8,1.9,1.3,3.2,1.1c1.5-0.2,1.7-0.6,3.4-1.2c2.4-0.9,3.7-1,5.6-2c2.7-1.4,2.6-1.5,4.1-2.4c3.4-2,4.1-1.9,5.8-3.4
		C218,46.2,217.7,44.8,217.4,44z"/>
	<path d="M517.7,15.5c-0.8-0.3-10.7,4.7-3.7-2.6c0.6-0.6-0.4-1.1-0.4-1.1c-0.6-0.3-1.2-0.4-1.7-0.4c-1.1,0.1-1.3,0.3-2.1,1.8
		c-2.7,4.9-4.2,4.8-8.2,4.7c-1.1,0-2.9,0.2-3.2,1.4c-0.5,1.8,1.1,2.2,2.2,2.1c5.1-0.4,1.1,3.8,0.2,5.1c-2.6,3.7-4.2,7.9-4.7,12.4
		c-0.2,1.9-0.7,4.5,1.7,4.8c2.5,0.3,1.8-2.5,2.3-4.1c2.6-8.8,7.1-19.3,15.3-20.7C516.7,18.5,519.3,16.2,517.7,15.5z"/>
	<path d="M535.8,27.3c-0.9,0.1-1.8,0.2-2.7,0.3c-1.9,0.1-4.1,0.9-5.7,0.2c-2.3-1-0.6-3.7-1.2-5.5c-0.1-0.4-0.2-0.8-0.4-1.1
		c-0.4-0.8-1.1-1.2-2-1c-0.8,0.1-1.3,0.7-1.4,1.4c-0.1,0.8-0.2,1.6-0.2,2.4c0,3-0.6,4.6-4.1,6c-1.4,0.6-2.9,1.6-2.8,4
		c0,2.3,0.9,3.7,2.9,4.7c1.7,0.8,2.9-0.2,4.1-1.2c0.7-0.6,1.2-1.4,1.7-2.2c1.1-2,2.7-3.2,5-3.6c2.5-0.4,5-0.8,7.5-1.5
		c1-0.2,2.5-0.7,2.2-2.1C538.3,26.7,536.9,27.2,535.8,27.3z M520.9,34.6c-0.7,0.4-2,0.1-2.2-0.6s0.6-1.6,1.3-2
		c0.7-0.4,2.1-0.4,2.3,0.3S521.7,34.2,520.9,34.6z"/>
	<path d="M477.3,19c-4,2.6-7.5,4.7-11,7.9c-1.9,1.8-1.8,6.2,0.2,7.8c3.3,2.7,4.6,2.6,10.9,5.3c1.7,0.5,2.9,0.2,3.3-1.5
		c0.4-1.7-1.3-1.8-2.4-2.2c-1.1-0.4-2.4-0.5-3.5-0.9c-2.2-0.8-4.4-2-4.9-4.5c-0.5-2.2,1.5-3.6,2.9-4.6c2.3-1.5,4.8-2.8,6.5-3.5
		c1.3-0.5,2.6-1.3,1.8-2.9C480.3,18.1,478.7,18.1,477.3,19z"/>
	<path d="M600.1,23.1c-2.3-0.1-4.3,3.1-4.4,7c0,3.6,1.8,6,4.7,5.9c3.1,0,6.8-3.5,6.7-6.4C607.1,26.9,603.2,23.2,600.1,23.1z
		 M601.2,31.2c-0.7,0-1.2-0.6-1.2-1.5c0-1,0.5-1.8,1.1-1.8c0.8,0,1.7,0.9,1.8,1.7C602.8,30.3,601.9,31.2,601.2,31.2z"/>
	<path d="M135.9,32.9c-2.1-0.4-2.8,1.2-3.1,2.9c-0.8,4.1-2.4,11.1-1.7,15.9c0,2.1,0.4,1.8,0.7,4.4c0.2,1.8,1.8,3,3.5,2.6
		c1.9-0.5,1-2.1,0.7-3.3c-0.8-2.4-0.9-4.8-0.5-7.2c0.5-3.8,0.7-7.7,2.1-11.3C138.1,35.3,138.2,33.3,135.9,32.9z"/>
	<path d="M331.4,0c-6,1.1-11.6,3.4-16.5,7.2c-0.8,0.6-1.2,1.5-0.6,2.5c0.6,1,1.5,1.5,2.7,1.3c1-0.1,1.7-0.8,2.4-1.4
		c4.1-3.2,8.2-6.1,13.9-5c0.8,0.2,1.8-0.1,2.1-1c0.3-0.9-0.1-1.7-0.7-2.3C333.8,0.2,332.6,0.1,331.4,0z"/>
	<path d="M525.3,11.5c3,0.2,5.6,1.6,8.2,2.9c0.9,0.5,2,0.5,2.7-0.6c0.6-1,0.2-2-0.6-2.7c-2.6-2.3-5.8-3.2-8.9-4.1
		c-1.5,0-2.6,0.5-2.9,1.9C523.6,10.1,524,11.4,525.3,11.5z"/>
	<path d="M172.4,40.6c-1.8,0.1-3.6,0.3-5.5,0.5c-1.9,0.2-2.9-0.5-2.6-2.6c0.1-0.7,0.2-1.5,0.2-2.2c0.1-0.8,0-1.7,0.7-1.8
		c1.2-0.6,2.4-1.2,3.6-1.7c2.9-1.4,0.4-5.7-2.5-4.3c-0.7,0.3-1.7,0.8-2.3,1.1c-0.2-0.4-0.2-0.4-0.4-1.3c-0.2-1-0.5-2.1-0.6-3.2
		c-0.2-1.3-1-2.5-2.5-2.5c-1.2,0-2.7,1.2-2.5,2.5c0.3,2,0.8,4.6,1.3,6.5c-3.4,2.2-3.3,1.8-5.1,2.8c-1.3,0.6-2.7,1.3-4,1.9
		c-2.7,1.2-0.8,4.9,1.8,4.5c2.2-1,0.7-0.3,2.6-1.1c1.6-0.7,3.2-1.5,4.7-2.2c0.9,1.2,0.9,3-0.1,4.4c-0.3,0.5-0.9,0.8-1.4,1.2
		c-1.1,0.9-2.3,1.7-3.4,2.6c-1.9,1.7-2,5.2-0.3,6.9c1.6,1.6,3.8,1.5,6.3-0.1c1-0.6,2.2-2.1,2.7-2.5c3.6-3.5-0.4-6.1,8-5.5
		c0.5,0,1,0,1.5-0.1c1.1-0.1,2.5-0.3,2.5-1.7C175,40.9,173.7,40.6,172.4,40.6z M158.9,48.7c-1.3,0.6-1.5,0.3-1.8-0.3
		c-0.3-0.6-0.3-1,0.9-1.6c1.3-0.6,2.4-0.9,2.7-0.3C161,47.1,160.2,48.1,158.9,48.7z"/>
	<path d="M75.8,38.9c-0.8,1.9-1.8,3.7-2.9,5.5c-1.9,2.9,2.3,6.3,4.2,3.4c1.4-2.1,2.6-4.3,3.6-6.6c2.1,0.2,4.5-0.3,6.4-0.9
		c1.8-0.6,2.3,0.8,2.1,2.2c-0.3,1.3-0.3,2.3-1.4,2.7c-1.3,0.5-2.7,0.8-4.1,1.1c-1.8,0.5-4,1-3.4,3.6c0.6,2.5,2.5,1.8,4.5,1.4
		c1.9-0.4,3.1-0.9,3.5,0.7c0.6,2.1,0.7,5.7-5.3,7c-2.6,0.6-5.1,1.5-7.7,1.7c-1.6,0.2-2.6,1.3-2.3,3c0.2,1.7,1.6,2,3,1.9
		c1.2-0.1,2.4-0.4,3.5-0.8c10-3.3,20-7,30.6-7.7c1.3-0.1,3.2-0.5,2.8-2.5c-0.3-1.8-1.9-1.5-3.2-1.4c-5.2,0.2-8.1,1.7-15.2,2.6
		c-1,0.1-1-1.3-0.9-3.1c0.2-3.3,0.8-2.9,4.5-3.3c4-0.4,5.4-1.7,4.8-3.9c-0.5-2-3.7-1.6-5.3-1.2c-4.2,1.1-3.7-0.9-2.6-5
		c0.8-3,2.8-2.1,6.2-2.5c1.6-0.2,2.4-1.1,2.2-2.7c-0.1-1.5-1.3-2-2.5-2.1c-1.7-0.1,0,0-5.4,0.8c0.1-0.9,0.3-2.9,0.4-3.9
		c0.3-3.5-5-4.3-5.4-0.8c-0.2,2.3-0.3,3.5-0.4,5.8c-1.6,0.9-3.7,1.3-5.6,1.5c-0.7,0.1-1.4,0.3-2,0.4c0.7-2.5,1.2-5.1,1.5-7.7
		c0.3-3.5-5-4.3-5.4-0.8c-0.1,1.6-0.7,3.7-1,5.2c-0.4,1.6-1.1,3.8-1.3,4.9"/>
</g>
</svg>