<svg xmlns="http://www.w3.org/2000/svg" viewBox="0 0 245.82 37.31"><defs><style>.cls-1{fill:#231815}</style></defs><title>kokokara-logo</title><g id="レイヤー_2" data-name="レイヤー 2"><path class="cls-1" d="M7.5 20.92l-2.36 3.54v12.18H0V.67h5.14v15.62l2.36-4.21L14.7.67h6.06L10.48 16.34l11.77 20.3h-6zM31 25.23V12.08C31 4.57 35.1 0 42 0s11 4.57 11 12.08v13.15c0 7.51-4.11 12.08-11 12.08s-11-4.57-11-12.08zm16.65 0V12.08c0-4.53-2-7-5.65-7s-5.65 2.46-5.65 7v13.15c0 4.52 1.9 7 5.65 7s5.64-2.48 5.64-7zm25.18-4.31l-2.37 3.54v12.18h-5.14V.67h5.14v15.62l2.37-4.21L80 .67h6.07L75.81 16.34l11.77 20.3h-6zm23.48 4.31V12.08c0-7.51 4.12-12.08 11-12.08s11 4.57 11 12.08v13.15c0 7.51-4.11 12.08-11 12.08s-11-4.57-11-12.08zm16.66 0V12.08c0-4.53-2-7-5.66-7s-5.65 2.46-5.65 7v13.15c0 4.52 1.9 7 5.65 7s5.69-2.48 5.69-7zm25.18-4.31l-2.36 3.54v12.18h-5.14V.67h5.14v15.62l2.36-4.21 7.2-11.41h6.06l-10.28 15.67 11.77 20.3h-6zM176 29.4h-9.51l-1.64 7.24h-5.45l9-36h5.61l9 36h-5.4zm-1-4.84l-2.26-9.66c-.52-2.36-1.08-5.8-1.34-7.71h-.15c-.26 1.91-.77 5.35-1.34 7.71l-2.21 9.66zm26.73-.97h-3.24v13.05h-5.19V.67h9.3c6.89 0 10.79 4.11 10.79 11.25 0 5.6-2.36 9.46-6.47 11l7.81 13.77H209zm-3.24-4.94h4c3.65 0 5.55-2.36 5.55-6.62s-1.9-6.43-5.5-6.43h-4.06zm40.24 10.75h-9.51l-1.64 7.24h-5.45l9.05-36h5.6l9 36h-5.39zm-1.08-4.84l-2.26-9.66c-.51-2.36-1.08-5.8-1.34-7.71h-.15c-.26 1.91-.77 5.35-1.34 7.71l-2.21 9.66z" id="レイヤー_1-2" data-name="レイヤー 1"/></g></svg>