<svg xmlns="http://www.w3.org/2000/svg" viewBox="0 0 607.1 79.5"><path d="M407.7 40.6c-.3-1.1-.8-1.4-1.2-1.4-.7 0-.5-.2-2.1.1V38c-.1-2.4-.1-2.4-.2-6.2 0-5.7-1.7-8-7.3-6.9-8.1 1.6-7.2.9-21 6.3-.5.2-1 .1-1.5-.4-.6-.5-.3-1.4.6-2.5 4.1-5 6.3-8.9 10.9-12.2 1-.7 8.3-1.4 9.6-1.8.9-.3 2.5-.5 2.1-2.1-.3-1.4-1.6-1.8-2.8-1.8-.5 0-1-.1-1.4.1-6.1 1.6-17.1 3.1-23.1 5.4-3.5 1.3-7.2 2-10.3 4.3-1.2.9-2.1 2.1-.9 3.6 1.1 1.4 2.3.7 3.5-.1.3-.2.5-.5.8-.7 4.7-3.2 8.6-3.7 14.6-5.2-2.4 2.8-1.3 1.5-3.9 4.8-2.1 2.8-2.1 2.3-4.1 4.7-1.6 1.9-3 2.4-2.7 5.4.1 1.4.1 3.2.2 4.6.3 5.1 1.3 9.7 1.6 14.8.1 1.4.6 2.5 1.9 3.2 1.5.7 2.2-.3 3-1.3.5-.5 4.6-2 5.3-2.3 4.5-2 2.5-1.1 6.1-2.3 2.1-.7 6.1-1.9 7.2-2.2l5.8-1.7s2-.8 4.7-1.5c1.3-.3 2.7-.6 3.8-1.1.8-.4 1.1-1.2.8-2.3zm-26.8 3.7c0 1.4-.1 1.5-1.2 2.3-1.4 1-2.3 1-3.1 1.2-.9.2-2.9.9-3-1 0 0-.2-1.6-.3-3.4-.1-1-.1-5.2-.1-6-.1-2.4 3.9-3 5.9-3.3 1.4-.2 1.3 1.1 1.5 2.7.3 4.1.4 5.3.3 7.5zm4-8.5c-.1-.3-.4-1.9-.2-2.3.8-1.6 5.1-2.1 5.1-2.1.8-.1 1.1 1.1 1 2.2 0 1.2-.4.9-2.4 1.6-1.1.4-1.6.8-2.7 1.1-.2 0-.7-.1-.8-.5zm6.3 6.4c-1.3.5-2.8.8-4.2 1.3-1.6.6-1.3-.1-1.6-1.1-.3-.9 0-1.5 1-1.7 1.7-.4 4-1.9 5.5-1.4.2.1.7 1.8.7 2.1 0 .6-1 .7-1.4.8zm8.1-2.5c-.1 1.3 0 .9-3 1.5-.2 0-.3.1-.6.1-.2 0-.4-.2-.4-.5-.1-1.8-.5-3.2-.7-4.2-.2-1.6-.2-1.6-.4-3.8-.1-1.3-.3-2.5.4-2.7 1.5-.5 2-.5 3.4-.9.8-.2.7 1.3.8 2.2.4 3.8.7 4.6.5 8.3zm47.2-15.5c-.3-4-2.5-5.2-6.3-4.1-3.3 1-6.2 2.6-9.1 4.2-2 1.1-2.7.3-3.1-1.6-.3-1.5 1-2.1 2.2-3.1 2.8-2.5 3.1-3.4 9-6.6 1.1-.6 1.5-.3 1.7-1.5.2-.9-.2-1.7-1-2.1-1.1-.7-2.1-.5-3.1.3-4 2.9-8 5.8-12.1 8.7-1.1.8-1.8 1.8-1.4 3.1 1.6 4.8 1 9.8 1.4 14.4 0 2.9-.1 5.4 0 7.9.1 2.6 1.5 3.5 4 2.6 1.7-.6 4.7-1.1 6.5-1.6 2.1-.6 5.7-.9 8.4-1.5s4.4.4 4.7-1c1.4-5.4-1.3-10.3-1.8-18.1zm-16.7 5.1c2.8-2.3 6-3.1 9.6-4.1 1.9-.5 2.9.2 2.8 2-.1 1.9.8 2.8-2.5 3.3-2.9.4-5.9 1.3-8.8 1.7-.8.1-.8.3-1.2-.5-.2-.4-.3-2.1.1-2.4zm10.3 10.5c-2.5.4-5.1.8-8.1 1.8s-2.2-1.3-2.4-2.8c-.3-1.9.2-1.9 2.4-2.4 3-.7 3.7-1.3 5.6-1.7 3.1-.7 5.7-1.2 5.9.2.3 3 1.1 4.2-3.4 4.9zm138.2-14.2c-.6 0-.9-.1-1.8-.1-2.5.2-2.3.4-2.1-1.8.3-4.3-2.9-6.8-6.8-6.5-1.9.2-1.7-1.2-1.1-2.1 1.5-2.1 2.4-4.2 3.1-6.5 1.1-3.2-.4-5.1-4.3-5.1-2.1.2-4.2.8-6.8 1.9-1.9.8-3.5 1.6-4.8 3.1-1 1.2-.8 2.6.2 3.6 1.1 1 2 0 2.8-.8 1.6-1.5 3-2.3 4.8-3 1.7-.7 2.5-1.2 3.4-.3 1 1.1-.2 2.3-.9 3.3-2.9 4.4-5.7 7.9-9 11.5-1.2 1.4-2.5 2.9-1 4.5 1.6 1.7 3.2.3 4.4-1 1.8-2 4-3.5 6.5-4.4 2.3-.8 4.3-.3 5 2 .5 1.6-.7 3-2.4 3.8-4.7 2.1-7.6 5.7-9 10.5-.5 1.6-1.1 3.6.7 4.7 1.6 1.1 3.1 0 4.3-1.2 2.2-2.3 4.6-4.7 6.5-7.2 1.5-1.9 2.6-4.8 8.2-4.7 1.3 0 3.2-.3 3.1-2.2 0-1.6-1.6-1.9-3-2zm-12.6 9.6c-1.3 1.5-2.8 2.5-3.3 2.1-.5-.3.1-1.8 1.4-3.3s2.8-2.5 3.3-2.1c.5.4-.1 1.8-1.4 3.3zM55.4 63.9c-6.5-1.3-11-4-13.8-5.7-4.5-2.6-7.9-6.8-11.3-10.6-4.4-4.9-3.5-7.9-2.3-14.1.8-4.1 2.1-5.8 3.2-9.2 1.7-2.6-.2-3.3-2.9-4-2-.4-2.6 1.1-3 2.7-.3 1.3-.5 2.6-.8 3.9-.4 2.3-1.3 4.5-2.1 6.7C17.8 46.4 13 54.7 4.3 66.2c-.6.8-5 6.1-4.4 6.9.7 1 4 .7 5.1.4 1.2-.4 2-1.6 2.7-2.5 6.4-7.7 10-13.7 14.3-21 1.4-2.4 2.2-2.2 3.3-.6 2.2 3 2.6 3.3 3.8 4.6 5.4 6.2 17.1 14.5 25.2 15.2.5 0 2.9 0 3.4-.1 1.3-.3 1-2.3-.1-4-.8-1.2-1.1-1-2.2-1.2zm242.1-39.8h-2.6c-2 0-4.2.3-2.5-3 .7-1.3-.1-2.5-1.4-3.2-1.5-.8-2.4.1-3.2 1.2-.7 1.1-1.3 2.2-1.8 3.4-1.1 2.5-2.6 4.2-5.5 4.7-2.6.5-5 1.9-7.2 3.3-1.4.9-1.8 2.2-.9 3.5.9 1.3 2.2 1.1 3.4.5.8-.4 1.5-1.1 2.3-1.6.6-.4 2.2-1.7 2.9-1.2.8.6-.8 2.1-1.1 2.8-1.5 3.3-3 6.6-4.6 9.8-.7 1.4-1.1 2.8-.3 4.2.3.6.9.9 1.6.8 1.7-.4 2.2-1.9 2.7-3.3.1-.4.1-.8.3-1.2 1.4-4 3.5-7.6 6.1-11.7.8 3.3 1.3 6 2.4 8.5.7 1.6 1.5 2.9 3.4 2.9 1.8 0 2.9-1 3.6-2.6 2.1-4.4 3.7-9 5.2-13.7 1.1-2.8.1-4-2.8-4.1zm-2.6 7c-.4 2.4-1.5 4.6-2.6 6.8-.8 1.6-1.6.7-1.9-.4-.8-2.5-.6-5.1-.2-7.5.3-1.6 1.7-1.7 3-1.4 1.5.2 2 1.1 1.7 2.5zm43.4-10c-.2-.9-1.6-1.2-2.8-1.3-1.4-.2-5.4 1-7 1.3-5.7 1.2-10.9 3.5-14.8 8.1-1 1.1-.9 2.4.4 3.3 1.1.8 2.3.7 3.1-.5 2.9-4.1 7.3-5.3 11.7-6.6 2.7-.8 3.6.1 3 2.9-1 4.3-2.9 8.2-4.7 12.2-5.8 12.5-14 23.6-20.7 35.6-.5.9-2.1 1.9-.5 2.9 1.2.8 2.4-.1 3.3-1.2.6-.8 1.2-1.7 1.8-2.6 1.8-2.9 3.5-5.8 5.4-8.7 8.6-12.7 16.2-26 21.2-40.7.4-1.2 1.1-2.1.6-4.7zm-79.5 19.8s-.8-2.2-.8-4.4c-.1-2-.3-3-.4-6.6-.2-4.7-2-6.7-6.6-5.1-4.1 1.5-8.2 3-12.2 4.7-2.2.9-4.5 2-6.4 3.6-.9.7-1.4 1.7-.7 2.8.6 1.1 1.6 1.4 2.8 1 .8-.3 1.5-.8 2.2-1.2 5.4-3.3 8-4.3 12.3-5.8 2.9-1 3.6 0 3.7 3 0 1.7.3 3.2.4 4.8.2 4 1.5 3.7-6 6.4-2.8 1-5.4 2.5-8 3.8-1.1.6-2.2 1.6-1.6 3.1.7 1.8 1.9 1.3 3.2 1.1 1.5-.2 1.7-.6 3.4-1.2 2.4-.9 3.7-1 5.6-2 2.7-1.4 2.6-1.5 4.1-2.4 3.4-2 4.1-1.9 5.8-3.4-.2 0-.4-1.4-.8-2.2zM217.4 44s-.8-2.2-.8-4.4c-.1-2-.3-3-.4-6.6-.2-4.7-2-6.7-6.6-5.1-4.1 1.5-8.2 3-12.2 4.7-2.2.9-4.5 2-6.4 3.6-.9.7-1.4 1.7-.7 2.8.6 1.1 1.6 1.4 2.8 1 .8-.3 1.5-.8 2.2-1.2 5.4-3.3 8-4.3 12.3-5.8 2.9-1 3.6 0 3.7 3 0 1.7.3 3.2.4 4.8.2 4 1.5 3.7-6 6.4-2.8 1-5.4 2.5-8 3.8-1.1.6-2.2 1.6-1.6 3.1.7 1.8 1.9 1.3 3.2 1.1 1.5-.2 1.7-.6 3.4-1.2 2.4-.9 3.7-1 5.6-2 2.7-1.4 2.6-1.5 4.1-2.4 3.4-2 4.1-1.9 5.8-3.4-.2 0-.5-1.4-.8-2.2zm300.3-28.5c-.8-.3-10.7 4.7-3.7-2.6.6-.6-.4-1.1-.4-1.1-.6-.3-1.2-.4-1.7-.4-1.1.1-1.3.3-2.1 1.8-2.7 4.9-4.2 4.8-8.2 4.7-1.1 0-2.9.2-3.2 1.4-.5 1.8 1.1 2.2 2.2 2.1 5.1-.4 1.1 3.8.2 5.1-2.6 3.7-4.2 7.9-4.7 12.4-.2 1.9-.7 4.5 1.7 4.8 2.5.3 1.8-2.5 2.3-4.1 2.6-8.8 7.1-19.3 15.3-20.7 1.3-.4 3.9-2.7 2.3-3.4zm18.1 11.8l-2.7.3c-1.9.1-4.1.9-5.7.2-2.3-1-.6-3.7-1.2-5.5-.1-.4-.2-.8-.4-1.1-.4-.8-1.1-1.2-2-1-.8.1-1.3.7-1.4 1.4-.1.8-.2 1.6-.2 2.4 0 3-.6 4.6-4.1 6-1.4.6-2.9 1.6-2.8 4 0 2.3.9 3.7 2.9 4.7 1.7.8 2.9-.2 4.1-1.2.7-.6 1.2-1.4 1.7-2.2 1.1-2 2.7-3.2 5-3.6 2.5-.4 5-.8 7.5-1.5 1-.2 2.5-.7 2.2-2.1-.4-1.4-1.8-.9-2.9-.8zm-14.9 7.3c-.7.4-2 .1-2.2-.6s.6-1.6 1.3-2c.7-.4 2.1-.4 2.3.3s-.6 1.9-1.4 2.3zM477.3 19c-4 2.6-7.5 4.7-11 7.9-1.9 1.8-1.8 6.2.2 7.8 3.3 2.7 4.6 2.6 10.9 5.3 1.7.5 2.9.2 3.3-1.5.4-1.7-1.3-1.8-2.4-2.2-1.1-.4-2.4-.5-3.5-.9-2.2-.8-4.4-2-4.9-4.5-.5-2.2 1.5-3.6 2.9-4.6 2.3-1.5 4.8-2.8 6.5-3.5 1.3-.5 2.6-1.3 1.8-2.9-.8-1.8-2.4-1.8-3.8-.9zm122.8 4.1c-2.3-.1-4.3 3.1-4.4 7 0 3.6 1.8 6 4.7 5.9 3.1 0 6.8-3.5 6.7-6.4 0-2.7-3.9-6.4-7-6.5zm1.1 8.1c-.7 0-1.2-.6-1.2-1.5 0-1 .5-1.8 1.1-1.8.8 0 1.7.9 1.8 1.7-.1.7-1 1.6-1.7 1.6zm-465.3 1.7c-2.1-.4-2.8 1.2-3.1 2.9-.8 4.1-2.4 11.1-1.7 15.9 0 2.1.4 1.8.7 4.4.2 1.8 1.8 3 3.5 2.6 1.9-.5 1-2.1.7-3.3-.8-2.4-.9-4.8-.5-7.2.5-3.8.7-7.7 2.1-11.3.5-1.6.6-3.6-1.7-4zM331.4 0c-6 1.1-11.6 3.4-16.5 7.2-.8.6-1.2 1.5-.6 2.5s1.5 1.5 2.7 1.3c1-.1 1.7-.8 2.4-1.4 4.1-3.2 8.2-6.1 13.9-5 .8.2 1.8-.1 2.1-1 .3-.9-.1-1.7-.7-2.3-.9-1.1-2.1-1.2-3.3-1.3zm193.9 11.5c3 .2 5.6 1.6 8.2 2.9.9.5 2 .5 2.7-.6.6-1 .2-2-.6-2.7-2.6-2.3-5.8-3.2-8.9-4.1-1.5 0-2.6.5-2.9 1.9-.2 1.2.2 2.5 1.5 2.6zM172.4 40.6c-1.8.1-3.6.3-5.5.5s-2.9-.5-2.6-2.6c.1-.7.2-1.5.2-2.2.1-.8 0-1.7.7-1.8 1.2-.6 2.4-1.2 3.6-1.7 2.9-1.4.4-5.7-2.5-4.3-.7.3-1.7.8-2.3 1.1-.2-.4-.2-.4-.4-1.3-.2-1-.5-2.1-.6-3.2-.2-1.3-1-2.5-2.5-2.5-1.2 0-2.7 1.2-2.5 2.5.3 2 .8 4.6 1.3 6.5-3.4 2.2-3.3 1.8-5.1 2.8-1.3.6-2.7 1.3-4 1.9-2.7 1.2-.8 4.9 1.8 4.5 2.2-1 .7-.3 2.6-1.1 1.6-.7 3.2-1.5 4.7-2.2.9 1.2.9 3-.1 4.4-.3.5-.9.8-1.4 1.2-1.1.9-2.3 1.7-3.4 2.6-1.9 1.7-2 5.2-.3 6.9 1.6 1.6 3.8 1.5 6.3-.1 1-.6 2.2-2.1 2.7-2.5 3.6-3.5-.4-6.1 8-5.5.5 0 1 0 1.5-.1 1.1-.1 2.5-.3 2.5-1.7-.1-1.8-1.4-2.1-2.7-2.1zm-13.5 8.1c-1.3.6-1.5.3-1.8-.3-.3-.6-.3-1 .9-1.6 1.3-.6 2.4-.9 2.7-.3.3.6-.5 1.6-1.8 2.2zm-83.1-9.8c-.8 1.9-1.8 3.7-2.9 5.5-1.9 2.9 2.3 6.3 4.2 3.4 1.4-2.1 2.6-4.3 3.6-6.6 2.1.2 4.5-.3 6.4-.9 1.8-.6 2.3.8 2.1 2.2-.3 1.3-.3 2.3-1.4 2.7-1.3.5-2.7.8-4.1 1.1-1.8.5-4 1-3.4 3.6.6 2.5 2.5 1.8 4.5 1.4 1.9-.4 3.1-.9 3.5.7.6 2.1.7 5.7-5.3 7-2.6.6-5.1 1.5-7.7 1.7-1.6.2-2.6 1.3-2.3 3 .2 1.7 1.6 2 3 1.9 1.2-.1 2.4-.4 3.5-.8 10-3.3 20-7 30.6-7.7 1.3-.1 3.2-.5 2.8-2.5-.3-1.8-1.9-1.5-3.2-1.4-5.2.2-8.1 1.7-15.2 2.6-1 .1-1-1.3-.9-3.1.2-3.3.8-2.9 4.5-3.3 4-.4 5.4-1.7 4.8-3.9-.5-2-3.7-1.6-5.3-1.2-4.2 1.1-3.7-.9-2.6-5 .8-3 2.8-2.1 6.2-2.5 1.6-.2 2.4-1.1 2.2-2.7-.1-1.5-1.3-2-2.5-2.1-1.7-.1 0 0-5.4.8.1-.9.3-2.9.4-3.9.3-3.5-5-4.3-5.4-.8-.2 2.3-.3 3.5-.4 5.8-1.6.9-3.7 1.3-5.6 1.5-.7.1-1.4.3-2 .4.7-2.5 1.2-5.1 1.5-7.7.3-3.5-5-4.3-5.4-.8-.1 1.6-.7 3.7-1 5.2-.4 1.6-1.1 3.8-1.3 4.9"/></svg>